P3
# Created by ppm-class, by Dr. Jan Pearce
10 8
255
46 15 20 40 13 17 35 11 15 30 10 13 25 8 11 20 6 8 15 5 6 10 3 4 5 1 2 0 0 0 
40 13 17 21 7 9 21 7 9 85 28 37 21 7 9 21 7 9 85 28 37 85 28 37 85 28 37 6 2 2 
33 11 14 21 7 9 85 28 37 84 28 37 85 28 37 21 7 9 85 28 37 85 28 37 84 28 37 13 4 5 
26 8 11 21 7 9 85 28 37 85 28 37 21 7 9 21 7 9 21 7 9 21 7 9 21 7 9 20 6 8 
20 6 8 21 7 9 21 7 9 21 7 9 21 7 9 85 28 37 21 7 9 85 28 37 21 7 9 26 8 11 
13 4 5 85 28 37 85 28 37 85 28 37 21 7 9 21 7 9 21 7 9 21 7 9 21 7 9 33 11 14 
6 2 2 84 28 37 85 28 37 85 28 37 21 7 9 85 28 37 85 28 37 85 28 37 21 7 9 40 13 17 
0 0 0 5 1 2 10 3 4 15 5 6 20 6 8 25 8 11 30 10 13 35 11 15 40 13 17 46 15 20 
